<?xml version="1.0" encoding="utf-8"?>
<svg xmlns="http://www.w3.org/2000/svg" fill="none" viewBox="0 0 58 28" height="28" width="58">
<path fill="#101010" d="M3.31263 18.2837C3.55595 18.9298 3.89281 19.4823 4.32329 19.941C4.75377 20.3999 5.26376 20.751 5.85326 20.9944C6.44282 21.2379 7.08382 21.3596 7.77631 21.3596C8.45011 21.3596 9.08172 21.2332 9.67129 20.9803C10.2608 20.7275 10.7755 20.3717 11.2153 19.9129C11.6551 19.4541 11.9967 18.9064 12.24 18.2697C12.4833 17.633 12.6049 16.9214 12.6049 16.1349V4H15.5526V23.6629H12.633V21.8371C11.978 22.5299 11.2059 23.0636 10.3169 23.4382C9.42791 23.8127 8.4688 24 7.43945 24C6.39133 24 5.41347 23.8174 4.50573 23.4522C3.59807 23.0871 2.81196 22.5675 2.14761 21.8933C1.48326 21.2191 0.959165 20.4093 0.575524 19.4635C0.191821 18.5178 0 17.4645 0 16.3034V4H2.94769V16.1349C2.94769 16.9214 3.06932 17.6376 3.31263 18.2837Z"/>
<path fill="#101010" d="M20.6337 4V11.1629C21.2888 10.5075 22.0468 9.98788 22.9077 9.60394C23.7686 9.22001 24.7044 9.02808 25.715 9.02808C26.7631 9.02808 27.7456 9.22468 28.6627 9.61793C29.5797 10.0112 30.3751 10.5449 31.0489 11.2191C31.7227 11.8933 32.2561 12.6891 32.6491 13.6067C33.0421 14.5244 33.2386 15.4982 33.2386 16.5281C33.2386 17.558 33.0421 18.5271 32.6491 19.4354C32.2561 20.3436 31.7227 21.1349 31.0489 21.8089C30.3751 22.4831 29.5797 23.0168 28.6627 23.4101C27.7456 23.8033 26.763 23.9999 25.715 23.9999C24.7043 23.9999 23.7639 23.808 22.8936 23.4241C22.0234 23.0402 21.2607 22.5205 20.6056 21.8651V23.6629H17.7983V4H20.6337ZM20.9565 18.4663C21.2092 19.0656 21.5601 19.5899 22.0093 20.0394C22.4585 20.4888 22.9825 20.8447 23.5814 21.1068C24.1804 21.369 24.826 21.5001 25.5185 21.5001C26.1923 21.5001 26.8286 21.369 27.4275 21.1068C28.0263 20.8447 28.5456 20.4889 28.9856 20.0394C29.4254 19.59 29.7763 19.0656 30.0383 18.4663C30.3003 17.8671 30.4313 17.221 30.4313 16.5281C30.4313 15.8352 30.3003 15.1845 30.0383 14.5758C29.7763 13.9672 29.4254 13.4382 28.9856 12.9888C28.5457 12.5394 28.0264 12.1882 27.4275 11.9354C26.8285 11.6827 26.1922 11.5562 25.5185 11.5562C24.8448 11.5562 24.2084 11.6826 23.6096 11.9354C23.0107 12.1883 22.4866 12.5394 22.0374 12.9888C21.5883 13.4382 21.2327 13.9672 20.9706 14.5758C20.7086 15.1845 20.5776 15.8352 20.5776 16.5281C20.5776 17.221 20.7039 17.8671 20.9565 18.4663Z"/>
<path fill="#101010" d="M34.8382 13.6338C35.2125 12.7349 35.7273 11.9437 36.3822 11.2602C37.0372 10.5767 37.814 10.0383 38.7123 9.64503C39.6107 9.25177 40.5839 9.05518 41.6319 9.05518C42.6613 9.05518 43.6158 9.24245 44.4955 9.61693C45.3751 9.99148 46.133 10.5112 46.7694 11.176C47.4057 11.8407 47.9017 12.6273 48.2572 13.5355C48.6128 14.4438 48.7906 15.4316 48.7906 16.499V17.426H37.1403C37.2339 18.0065 37.421 18.5449 37.7017 19.0411C37.9825 19.5373 38.3334 19.9681 38.7545 20.3332C39.1756 20.6985 39.6528 20.9841 40.1862 21.19C40.7196 21.396 41.2857 21.499 41.8846 21.499C43.5878 21.499 44.9634 20.7967 46.0115 19.3922L48.0608 20.909C47.3496 21.8641 46.47 22.6132 45.422 23.1562C44.3738 23.6993 43.1948 23.9708 41.8847 23.9708C40.8179 23.9708 39.8213 23.7835 38.8949 23.409C37.9685 23.0345 37.1637 22.5101 36.4806 21.836C35.7975 21.1618 35.2594 20.3706 34.8664 19.4624C34.4734 18.5542 34.2769 17.5663 34.2769 16.4989C34.2767 15.4877 34.464 14.5326 34.8382 13.6338ZM38.7825 12.5242C37.9871 13.189 37.4584 14.0738 37.1964 15.1787H45.9272C45.6839 14.0738 45.1645 13.189 44.3691 12.5242C43.5737 11.8594 42.6426 11.527 41.5759 11.527C40.509 11.527 39.5779 11.8594 38.7825 12.5242Z"/>
<path fill="#101010" d="M54.0971 12.8482C53.4982 13.5037 53.1987 14.3932 53.1987 15.5168V23.6629H50.3633V9.33705H53.1706V11.1067C53.5262 10.5262 53.9894 10.0674 54.5602 9.7303C55.131 9.39317 55.8095 9.22461 56.5956 9.22461H57.5781V11.8651H56.399C55.4633 11.8651 54.696 12.1928 54.0971 12.8482Z"/>
</svg>