<?xml version="1.0" encoding="utf-8"?>
<svg xmlns="http://www.w3.org/2000/svg" fill="none" viewBox="0 0 53 28" height="28" width="53">
<path fill="#101010" d="M5.28635 8.85005H0V4H16.4295V8.85005H11.142V23H5.28635V8.85005ZM17.3386 4H33.3135V8.85005H23.1947V11.1896H33.3135V15.7535H23.1947V18.1499H33.3135V23H17.3386V4ZM34.2793 4H43.8868C50.1975 4 52.4138 8.6789 52.4138 13.4719C52.4138 19.2916 49.3434 23 42.7496 23H34.2793V4ZM40.1354 18.1499H42.4083C46.0465 18.1499 46.5593 15.1835 46.5593 13.4149C46.5593 12.2162 46.1613 8.90716 41.9537 8.90716H40.0771L40.1354 18.1499Z"/>
</svg>