<?xml version="1.0" encoding="utf-8"?>
<svg xmlns="http://www.w3.org/2000/svg" fill="none" viewBox="0 0 52 52" height="52" width="52">
<path stroke-linejoin="round" stroke="#101010" fill="#FFE6C9" d="M11.2222 6.5C8.62386 6.5 6.5 8.62386 6.5 11.2222V40.7778C6.5 43.3761 8.62386 45.5 11.2222 45.5H40.7778C43.3761 45.5 45.5 43.3761 45.5 40.7778V11.2222C45.5 8.62386 43.3761 6.5 40.7778 6.5H11.2222Z"/>
<path fill="#101010" d="M24.9432 28.6387V14.3887H27.0543V25.472L38.2453 20.8297L39.0855 22.7255L24.9432 28.6387Z"/>
<path fill="#101010" d="M18.399 38.2463L16.7101 36.9755L24.2045 27.5831L13.0156 23.781L13.649 21.8852L27.7934 26.5276L18.399 38.2463Z"/>
<path fill="#101010" d="M25.1787 27.7151L26.8275 26.3998L35.2677 36.9469L33.619 38.2664L25.1787 27.7151Z"/>
<path stroke-linejoin="round" stroke="#101010" fill="#EE5A29" d="M25.9974 18.056C28.068 18.056 29.6641 16.4599 29.6641 14.3893C29.6641 12.3187 28.068 10.7227 25.9974 10.7227C23.9268 10.7227 22.3307 12.3187 22.3307 14.3893C22.3307 16.4599 23.9268 18.056 25.9974 18.056ZM38.6641 25.4449C40.7347 25.4449 42.3307 23.8488 42.3307 21.7782C42.3307 19.7076 40.7347 18.1115 38.6641 18.1115C36.5935 18.1115 34.9974 19.7076 34.9974 21.7782C34.9974 23.8488 36.5935 25.4449 38.6641 25.4449ZM25.9974 32.8338C29.2291 32.8338 31.7752 30.2877 31.7752 27.056C31.7752 23.8243 29.2291 21.2782 25.9974 21.2782C22.7657 21.2782 20.2196 23.8243 20.2196 27.056C20.2196 30.2877 22.7657 32.8338 25.9974 32.8338ZM13.3307 26.5004C15.4013 26.5004 16.9974 24.9044 16.9974 22.8338C16.9974 20.7632 15.4013 19.1671 13.3307 19.1671C11.2601 19.1671 9.66406 20.7632 9.66406 22.8338C9.66406 24.9044 11.2601 26.5004 13.3307 26.5004ZM17.553 41.2782C19.6235 41.2782 21.2196 39.6821 21.2196 37.6115C21.2196 35.541 19.6235 33.9449 17.553 33.9449C15.4824 33.9449 13.8863 35.541 13.8863 37.6115C13.8863 39.6821 15.4824 41.2782 17.553 41.2782ZM34.4418 41.2782C36.5124 41.2782 38.1085 39.6821 38.1085 37.6115C38.1085 35.541 36.5124 33.9449 34.4418 33.9449C32.3713 33.9449 30.7752 35.541 30.7752 37.6115C30.7752 39.6821 32.3713 41.2782 34.4418 41.2782Z"/>
</svg>