<?xml version="1.0" encoding="utf-8"?>
<svg xmlns="http://www.w3.org/2000/svg" fill="none" viewBox="0 0 52 52" height="52" width="52">
<path stroke="#101010" fill="#FFE6C9" d="M36.4763 45.1013H15.6249C10.9084 45.1013 7 41.1929 7 36.4763V15.6249C7 10.9084 10.9084 7 15.6249 7H36.3781C41.1909 7 44.998 10.9084 44.998 15.6249V36.3781C45.1013 41.1909 41.1929 45.1013 36.4763 45.1013Z"/>
<path stroke="#101010" fill="#EE5A29" d="M38.0839 36.6817C40.5905 33.8733 42.0945 30.1644 42.0945 26.0515C42.0945 21.9385 40.5905 18.331 38.0839 15.4212L40.8913 12.6178L43.2977 10.2084C42.8966 9.70703 42.3953 9.2057 41.894 8.80664L36.6831 14.0195C33.7714 11.5128 30.1648 10.0088 26.0519 10.0088C21.9389 10.0088 18.3314 11.5128 15.4216 14.0195L10.311 8.9039C9.8097 9.30797 9.30837 9.80931 8.9043 10.3106L14.0199 15.4212C11.5132 18.332 10.0092 21.9385 10.0092 26.0515C10.0092 30.1644 11.5132 33.772 14.0199 36.6817L8.9043 41.7923C9.30837 42.2937 9.8097 42.795 10.311 43.1991L12.7154 40.7897L15.5239 37.9822C18.3314 40.4888 22.0412 41.9928 26.1541 41.9928C30.2621 41.9928 33.8737 40.4888 36.7794 37.9822L41.895 43.0968C42.3963 42.6977 42.8976 42.1964 43.2967 41.6951L38.0839 36.6817ZM40.0892 26.0515C40.0892 29.5608 38.7857 32.7693 36.6821 35.276L33.0705 31.6674C34.2737 30.1634 35.0759 28.1581 35.0759 26.0505C35.0759 23.9429 34.374 21.9375 33.0705 20.4335L36.5799 16.9242C38.7857 19.3346 40.0892 22.5421 40.0892 26.0515ZM19.0332 26.0515C19.0332 24.4452 19.5346 23.0435 20.4349 21.8403L24.6501 26.0515L20.4349 30.2627C19.5144 29.0528 19.0214 27.5717 19.0332 26.0515ZM26.0519 24.6497L21.8407 20.4345C23.0505 19.514 24.5317 19.021 26.0519 19.0328C27.6581 19.0328 29.0599 19.5342 30.2631 20.4345L26.0519 24.6497ZM26.0519 27.4532L30.2631 31.6684C29.0532 32.589 27.5721 33.082 26.0519 33.0701C24.4456 33.0701 23.0439 32.5688 21.8407 31.6684L26.0519 27.4532ZM27.4536 26.0515L31.6688 21.8403C32.5894 23.0501 33.0824 24.5313 33.0705 26.0515C33.0705 27.6577 32.5692 29.0595 31.6688 30.2627L27.4536 26.0515ZM26.0519 12.0142C29.5612 12.0142 32.7697 13.3176 35.2764 15.4212L31.6678 19.0328C30.1638 17.8296 28.1585 17.0275 26.0509 17.0275C23.9433 17.0275 21.9379 17.7294 20.4339 19.0328L16.9246 15.5235C19.335 13.3176 22.5425 12.0142 26.0519 12.0142ZM12.0146 26.0515C12.0146 22.5421 13.318 19.3336 15.4216 16.827L18.9309 20.3363C17.7288 21.8403 16.9256 23.8456 16.9256 25.9492C16.9256 28.0568 17.6315 30.0621 18.9309 31.5661L15.4216 35.0755C13.319 32.7693 12.0146 29.5608 12.0146 26.0515ZM26.0519 40.0888C22.5425 40.0888 19.334 38.7853 16.8274 36.6817L20.3367 33.1724C21.8407 34.3746 23.846 35.1777 25.9496 35.1777C28.0572 35.1777 30.0625 34.4719 31.5665 33.1724L35.0759 36.6817C32.7697 38.7843 29.5612 40.0888 26.0519 40.0888Z"/>
</svg>