<?xml version="1.0" encoding="utf-8"?>
<svg xmlns="http://www.w3.org/2000/svg" fill="none" viewBox="0 0 103 28" height="28" width="103">
<path fill="#101010" d="M36.5489 25.2707C33.6547 25.2707 32.085 23.7984 32.085 21.0502V13.0019H31.0794C30.5888 13.0019 30.1473 12.8056 29.804 12.462C29.4606 12.1185 29.2889 11.6523 29.2889 11.1861C29.3134 10.2291 30.0983 9.46845 31.0794 9.46845H32.085V7.06376C32.1586 5.9841 33.0661 5.17436 34.1698 5.17436C35.249 5.17436 36.1565 6.00864 36.2546 7.06376V9.46845H37.8734C38.8545 9.49298 39.6148 10.2782 39.6148 11.2352C39.6148 12.1921 38.8545 12.9773 37.8734 13.0019H36.2546V19.9706C36.2546 21.1974 37.0395 21.6637 37.6772 21.6637H38.0451C39.2224 21.6637 39.8601 22.4243 39.8601 23.4304C39.8601 24.4364 39.2469 25.2707 36.5489 25.2707Z" clip-rule="evenodd" fill-rule="evenodd"/>
<path fill="#101010" d="M49.5729 25.2707C44.3976 25.2707 41.2827 21.5655 41.2827 17.1487C41.2827 12.781 44.4221 9.05131 49.5729 9.05131C54.7726 9.05131 57.8876 12.7565 57.8876 17.1487C57.8876 21.5655 54.7726 25.2707 49.5729 25.2707ZM49.5729 12.6829C46.9975 12.6829 45.5749 14.7686 45.5749 17.1487C45.5749 19.578 46.9975 21.6637 49.5729 21.6637C52.1482 21.6637 53.5953 19.578 53.5953 17.1487C53.5953 14.7686 52.1237 12.6829 49.5729 12.6829Z"/>
<path fill="#101010" d="M72.4812 25.0989H72.1624C71.8435 25.0989 70.3719 24.8536 70.3719 23.3077C69.2927 24.5591 67.4532 25.2952 65.3929 25.2952C62.8911 25.2952 59.9233 23.6267 59.9233 20.1914C59.9233 16.5844 62.8911 15.2103 65.3929 15.2103C67.4777 15.2103 69.3172 15.8728 70.3719 17.0997V14.9894C70.3719 13.419 68.9984 12.413 66.9381 12.413C65.6872 12.3884 64.4608 12.732 63.4307 13.3945C63.21 13.5417 62.9402 13.6153 62.6949 13.6153C61.8364 13.5908 61.1251 12.9037 61.1251 12.0449C61.1251 11.775 61.1987 11.4805 61.3459 11.2352C62.327 9.71382 65.8344 9.05131 67.6494 9.05131C71.2303 9.05131 74.517 10.45 74.517 14.8913V23.0868C74.4924 24.1665 73.6095 25.0744 72.4812 25.0989ZM70.3719 19.259C69.6851 18.3756 68.3852 17.9094 67.0607 17.9094C65.4419 17.9094 64.0929 18.7191 64.0929 20.2405C64.0929 21.6882 65.4174 22.5225 67.0607 22.5225C68.3852 22.5225 69.6851 22.0808 70.3719 21.1729V19.259Z"/>
<path fill="#101010" d="M84.2543 25.2707C82.2185 25.2707 78.9319 24.6082 77.9508 23.2095C77.7546 22.9642 77.6565 22.6697 77.6565 22.3507C77.681 21.4183 78.4413 20.6822 79.3734 20.6576C79.6677 20.6576 79.962 20.7312 80.2073 20.903C81.4336 21.6146 83.077 22.1544 84.426 22.1544C86.2164 22.1544 87.0504 21.4428 87.0504 20.4859C87.0504 17.9339 77.73 19.9951 77.73 13.9343C77.73 11.3578 80.0356 9.07584 84.1562 9.07584C86.1919 9.07584 88.988 9.71382 89.871 10.9652C90.0427 11.1861 90.1408 11.4805 90.1408 11.7504C90.1163 12.6093 89.3804 13.2963 88.522 13.2963C88.2522 13.2963 87.9824 13.2227 87.7371 13.1C86.6579 12.4866 85.4316 12.1676 84.1807 12.1676C82.6845 12.1676 81.7034 12.8301 81.7034 13.7135C81.7034 16.02 90.9992 14.1061 90.9992 20.3386C91.0483 23.1359 88.5956 25.2707 84.2543 25.2707Z" clip-rule="evenodd" fill-rule="evenodd"/>
<path fill="#101010" d="M99.363 25.2707C96.4688 25.2707 94.8991 23.7984 94.8991 21.0502V13.0019H93.8934C93.4029 13.0019 92.9614 12.8056 92.618 12.462C92.2747 12.1185 92.103 11.6523 92.103 11.1861C92.1275 10.2291 92.9124 9.46845 93.8934 9.46845H94.8991V7.06376C94.9726 5.9841 95.8802 5.17436 96.9839 5.17436C98.0631 5.17436 98.9706 6.00864 99.0687 7.06376V9.46845H100.687C101.669 9.49298 102.429 10.2782 102.429 11.2352C102.429 12.1921 101.669 12.9773 100.687 13.0019H99.0687V19.9706C99.0687 21.1974 99.8536 21.6637 100.491 21.6637H100.859C102.036 21.6637 102.674 22.4243 102.674 23.4304C102.674 24.4364 102.061 25.2707 99.363 25.2707Z" clip-rule="evenodd" fill-rule="evenodd"/>
<path fill="#101010" d="M26.6645 18.9154C26.689 17.1978 26.6154 15.5047 26.4437 13.7871C26.3211 12.6338 25.9287 11.1615 24.6778 10.8671C24.8495 10.9162 24.9966 10.8916 25.1683 10.8426C26.6154 10.0819 26.4928 8.21703 26.0022 6.89199C25.34 5.12528 23.7457 3.87386 22.1515 3.06412C16.4612 0.0950611 8.88228 0.340438 3.3882 3.72663C1.9411 4.60999 0.297775 6.32763 1.03359 8.2661C1.22981 8.73232 1.52413 9.17399 1.89204 9.54206C2.06373 9.71382 2.43164 10.1064 2.43164 10.1064C1.69582 11.1125 1.15623 11.9958 0.812846 13.2227C-0.241822 16.8543 -0.070132 19.2099 0.224194 22.1299C0.395884 23.9457 1.00906 26.6448 3.09387 26.9393C4.81077 27.1846 6.65031 26.6203 8.34269 26.424C10.2313 26.2031 12.1199 25.8596 14.0085 25.9087C16.6819 25.9823 19.3309 26.6203 22.0288 26.6448C23.4514 26.6693 25.806 26.792 26.223 24.9272C26.6154 23.1605 26.64 21.3201 26.64 19.5043C26.6645 19.308 26.6645 19.1117 26.6645 18.9154ZM23.5986 21.9827C22.9363 23.4794 21.0478 23.3077 19.7233 23.2095C17.7611 23.0378 15.8235 22.5716 13.8368 22.4979C12.0953 22.4489 10.3539 22.7679 8.66154 23.1605C7.38613 23.4304 5.62017 24.1665 4.46739 23.185C3.19198 22.1053 2.97124 20.265 2.94671 18.7191C2.97124 17.3205 3.1184 15.8973 3.36367 14.5232C3.51083 13.6644 3.78063 12.8301 4.12401 12.0204C4.59003 10.8671 5.25226 10.1555 5.30132 10.2046C4.95794 9.86105 4.54098 9.66475 4.32023 9.17399C3.43725 7.35821 5.62017 5.81234 6.822 5.27251C10.9916 3.40764 16.8291 3.57941 20.778 5.9841C22.0043 6.72023 24.3835 9.29668 22.1515 10.5726C23.525 11.2106 23.8684 13.1736 24.0401 14.5723C24.2853 16.8052 24.2118 19.0627 23.8193 21.2711C23.7703 21.5164 23.6967 21.7618 23.5986 21.9827Z"/>
</svg>