<?xml version="1.0" encoding="utf-8"?>
<svg xmlns="http://www.w3.org/2000/svg" fill="none" viewBox="0 0 103 28" height="28" width="103">
<path fill="#101010" d="M4.2915 1H21.3914C22.5298 0.999666 23.6218 1.45724 24.4268 2.27203C25.2318 3.08681 25.6842 4.19203 25.6842 5.34448V22.6542C25.6842 25.0544 23.7622 27 21.3914 27H4.2915C1.92116 26.9993 0 25.0539 0 22.6542V5.34448C0 2.94508 1.92136 1 4.2915 1ZM19.6631 22.2733C20.4112 22.2733 21.0176 21.6594 21.0176 20.9021L21.0139 7.09916C21.0139 6.34187 20.4074 5.72796 19.6593 5.72796H6.02603C5.66659 5.72796 5.32188 5.8726 5.06783 6.13002C4.81377 6.38745 4.67122 6.73655 4.67155 7.10043V20.9021C4.67155 21.6594 5.27797 22.2733 6.02603 22.2733H19.6631Z" clip-rule="evenodd" fill-rule="evenodd"/>
<path fill="#101010" d="M10.117 17.525C9.68999 17.5215 9.34565 17.1702 9.34566 16.7379V11.2278C9.34467 11.0184 9.42614 10.8172 9.57208 10.6687C9.71801 10.5203 9.91635 10.4368 10.1232 10.4368H15.5736C15.7804 10.4372 15.9785 10.5207 16.1244 10.6691C16.2702 10.8175 16.3518 11.0185 16.3511 11.2278V16.7366C16.3518 16.9459 16.2702 17.1469 16.1244 17.2952C15.9785 17.4436 15.7804 17.5272 15.5736 17.5276L10.117 17.525Z"/>
<path fill="#101010" d="M38.7531 12.8414C37.958 12.6219 37.2054 12.415 36.621 12.1514C35.5394 11.662 35.036 10.9833 35.036 10.017C35.036 8.19041 36.7805 7.36793 38.5176 7.36793C40.1685 7.36793 41.6103 8.05921 42.5785 9.31311L42.6445 9.39889L44.0401 8.29385L43.9729 8.20806C42.6857 6.5505 40.7792 5.64225 38.6022 5.64225C37.1531 5.64225 35.8247 6.03835 34.8641 6.75865C33.7825 7.55967 33.2117 8.72148 33.2117 10.1078C33.2117 13.3309 36.2097 14.1167 38.6197 14.7487C41.0583 15.3997 42.5524 15.8942 42.5524 17.7762C42.5524 19.6293 41.072 20.8265 38.7817 20.8265C37.649 20.8265 35.5519 20.5225 34.2336 18.484L34.1725 18.388L32.7046 19.4641L32.7619 19.5512C34.008 21.461 36.1587 22.5573 38.6696 22.5573C42.08 22.5573 44.3728 20.6082 44.3728 17.7094C44.3728 14.3917 41.2552 13.5327 38.7531 12.8414Z"/>
<path fill="#101010" d="M55.4979 12.1717V10.4271H57.1389V26.9977H55.4979V20.5238C54.5608 21.8244 53.1552 22.5358 51.5029 22.5358C48.3828 22.5358 46.202 20.0066 46.202 16.3547C46.202 12.7027 48.3877 10.1533 51.5029 10.1533C53.144 10.1533 54.5496 10.8686 55.4979 12.1717ZM47.9317 16.3345C47.9317 19.7152 49.8444 20.9199 51.6349 20.9199L51.6387 20.9211C53.9826 20.9211 55.4979 19.1046 55.4979 16.3345C55.4979 13.5643 53.9801 11.773 51.6349 11.773C48.9048 11.773 47.9317 14.1294 47.9317 16.3345Z" clip-rule="evenodd" fill-rule="evenodd"/>
<path fill="#101010" d="M67.9886 10.4271V16.9677C67.9886 19.2574 66.4396 20.92 64.3063 20.92C62.5344 20.92 61.6722 19.8553 61.6722 17.6667V10.4271H60.0311V18.006C60.0311 20.8442 61.555 22.5384 64.1069 22.5384C65.6969 22.5384 67.0627 21.856 67.9897 20.6083V22.2684H69.6309V10.4271H67.9886Z"/>
<path fill="#101010" d="M72.7212 11.6709C73.9311 10.7084 75.5734 10.1571 77.2245 10.1571C79.8326 10.1571 81.3889 11.4703 81.384 13.6728V22.271H79.7417V20.9578C78.9129 22.0085 77.7142 22.5409 76.1716 22.5409C73.6582 22.5409 72.0956 21.1495 72.0956 18.9117C72.0956 16.0015 74.8046 15.5448 75.9586 15.3505C76.1466 15.3191 76.341 15.2888 76.5353 15.2584L76.5425 15.2574C78.1191 15.0117 79.7466 14.7582 79.7466 13.4042C79.7466 11.8715 77.7815 11.7529 77.1797 11.7529C76.1167 11.7529 74.6152 12.072 73.5947 12.9676L73.5013 13.0496L72.6439 11.7327L72.7212 11.6709ZM73.809 18.8183C73.809 20.7156 75.5734 20.9211 76.3324 20.9211H76.3335C77.9834 20.9211 79.7491 20.0306 79.7454 17.5279V15.8147C78.9449 16.3266 77.8056 16.5265 76.7894 16.7049L76.7722 16.7079L76.2626 16.8C74.6352 17.1053 73.809 17.4988 73.809 18.8183Z" clip-rule="evenodd" fill-rule="evenodd"/>
<path fill="#101010" d="M90.8914 10.6502C90.5014 10.3689 89.8871 10.2011 89.2466 10.2011C87.9304 10.2187 86.6989 10.861 85.9208 11.9357V10.4219H84.2797V22.262H85.9208V15.9295C85.9208 13.1215 87.4797 11.8637 89.0235 11.8637C89.4754 11.8576 89.9227 11.9537 90.3332 12.1451L90.4441 12.2043L90.9637 10.6982L90.8914 10.6502Z"/>
<path fill="#101010" d="M91.3724 16.3799C91.3724 12.7166 93.629 10.1571 96.8551 10.1571C99.9627 10.1571 102.135 12.429 102.129 15.6873C102.128 15.9706 102.112 16.2535 102.082 16.535L102.072 16.6322H93.1006C93.1417 19.2396 94.6919 20.9211 97.0706 20.9211C98.4339 20.9211 99.6151 20.3599 100.396 19.3393L100.467 19.246L101.656 20.3182L101.59 20.3989C100.8 21.374 99.3597 22.5371 96.9797 22.5371C93.6277 22.5371 91.3724 20.0634 91.3724 16.3799ZM96.8102 11.7516C94.8053 11.7516 93.3835 13.0874 93.1617 15.1677H100.394C100.252 13.4949 99.2426 11.7516 96.8102 11.7516Z" clip-rule="evenodd" fill-rule="evenodd"/>
</svg>