<?xml version="1.0" encoding="utf-8"?>
<svg xmlns="http://www.w3.org/2000/svg" fill="none" viewBox="0 0 173 28" height="28" width="173">
<path fill="#101010" d="M49.9642 9.68455V18.4959H52.1575C52.7173 18.4875 53.2697 18.3669 53.7821 18.1409C54.2945 17.915 54.7564 17.5885 55.1406 17.1806C55.9291 16.3445 56.3605 15.233 56.343 14.0829C56.3597 13.5117 56.2636 12.9428 56.0601 12.4089C55.8566 11.875 55.5498 11.3866 55.1574 10.9718C54.7716 10.5634 54.3064 10.2384 53.7905 10.0168C53.2746 9.79521 52.7189 9.68176 52.1575 9.68343H49.9653L49.9642 9.68455ZM52.1575 6.92185C56.2457 6.92185 59.3383 10.0946 59.3383 14.0829C59.3383 18.0713 56.2457 21.2619 52.1575 21.2619H47.32C47.2739 21.2614 47.2283 21.2517 47.1859 21.2335C47.1436 21.2152 47.1052 21.1888 47.073 21.1557C47.0408 21.1227 47.0154 21.0835 46.9983 21.0406C46.9812 20.9977 46.9727 20.9519 46.9733 20.9057V7.29267C46.9733 7.09549 47.1288 6.93529 47.32 6.93529L52.1575 6.92185V6.92185ZM69.8757 18.8028C71.7324 18.8084 73.4091 17.6646 74.1238 15.9046C74.4739 15.0446 74.5675 14.1015 74.3932 13.1893C74.2188 12.2772 73.7841 11.4353 73.1417 10.7657C72.5106 10.107 71.6948 9.65567 70.8021 9.47124C69.9094 9.28681 68.9819 9.37799 68.142 9.73273C66.4262 10.4587 65.3055 12.1761 65.3022 14.0829C65.3022 16.6821 67.3468 18.7905 69.8768 18.8028H69.8757ZM69.8768 6.59695C74.1797 6.59695 77.4692 9.99376 77.4692 14.0829C77.4692 18.1721 74.1797 21.5689 69.8757 21.5689C65.5728 21.5689 62.3113 18.1889 62.3113 14.0829C62.3113 9.97696 65.6008 6.59695 69.8757 6.59695H69.8768ZM87.9216 18.8028C90.4528 18.7961 92.5008 16.6854 92.4985 14.0863C92.4952 11.4849 90.4427 9.37871 87.9127 9.37759C85.3804 9.37759 83.3268 11.4827 83.3234 14.0829C83.3234 15.3354 83.8078 16.5364 84.6701 17.4215C85.0922 17.8576 85.5973 18.2046 86.1556 18.4419C86.7139 18.6791 87.314 18.8019 87.9205 18.8028H87.9216ZM87.9205 6.59695C92.2099 6.59695 95.4995 9.97696 95.4995 14.0829C95.4995 18.1889 92.1965 21.5689 87.9205 21.5689C83.6456 21.5689 80.3281 18.1889 80.3281 14.0829C80.3281 9.97696 83.6176 6.59695 87.9205 6.59695ZM105.532 9.68455H102.44V13.4768H105.532C105.777 13.4877 106.021 13.4483 106.249 13.361C106.478 13.2737 106.686 13.1404 106.861 12.9693C107.219 12.622 107.423 12.1403 107.427 11.6339C107.436 11.377 107.393 11.1209 107.301 10.881C107.209 10.6412 107.069 10.4224 106.89 10.238C106.715 10.0565 106.503 9.91375 106.269 9.81901C106.036 9.72428 105.785 9.67962 105.532 9.68791V9.68455ZM99.4478 7.29267C99.4478 7.09549 99.6043 6.93529 99.7956 6.93529H105.619C108.395 6.93529 110.403 9.02469 110.403 11.6485C110.425 13.4231 109.457 15.0531 107.913 15.8474L110.598 20.7242C110.635 20.7802 110.656 20.8455 110.659 20.9127C110.661 20.98 110.645 21.0466 110.612 21.1051C110.579 21.1627 110.531 21.2098 110.473 21.2408C110.414 21.2718 110.348 21.2853 110.283 21.2799H107.926C107.861 21.2808 107.796 21.2632 107.741 21.2291C107.685 21.195 107.64 21.1458 107.611 21.0872L105.022 16.2608H102.429V20.8945C102.429 20.9408 102.421 20.9867 102.404 21.0298C102.387 21.0728 102.361 21.1121 102.329 21.1453C102.297 21.1785 102.259 21.205 102.216 21.2233C102.174 21.2416 102.128 21.2513 102.082 21.2519H99.8113C99.765 21.2513 99.7194 21.2416 99.6769 21.2233C99.6345 21.205 99.596 21.1785 99.5638 21.1453C99.5316 21.1121 99.5063 21.0728 99.4892 21.0298C99.4722 20.9867 99.4638 20.9408 99.4645 20.8945L99.4489 7.29379L99.4478 7.29267ZM118.202 9.75177V18.5642H120.394C120.954 18.5566 121.506 18.4367 122.019 18.2116C122.531 17.9864 122.993 17.6606 123.378 17.2534C124.167 16.4183 124.599 15.3076 124.583 14.158C124.601 13.5861 124.505 13.0162 124.302 12.4813C124.1 11.9464 123.793 11.457 123.4 11.0413C123.014 10.6321 122.548 10.3067 122.031 10.0851C121.514 9.86353 120.957 9.75046 120.395 9.75289L118.202 9.75177V9.75177ZM120.394 6.9857C124.482 6.9857 127.575 10.1618 127.575 14.158C127.575 18.1542 124.482 21.3303 120.394 21.3303H115.571C115.525 21.3297 115.479 21.32 115.437 21.3017C115.394 21.2834 115.356 21.2569 115.324 21.2237C115.291 21.1905 115.266 21.1512 115.249 21.1082C115.232 21.0652 115.223 21.0192 115.224 20.9729V7.36101C115.224 7.16271 115.38 7.00251 115.571 7.00251L120.395 6.9857H120.394ZM136.697 10.4901L135 15.2021H138.391L136.697 10.4901V10.4901ZM134.005 17.8651L132.894 21.002C132.872 21.0758 132.826 21.1401 132.763 21.1847C132.7 21.2294 132.624 21.2518 132.548 21.2485H130.138C130.077 21.2542 130.015 21.2433 129.959 21.2169C129.904 21.1905 129.856 21.1495 129.822 21.0984C129.787 21.0466 129.765 20.9866 129.76 20.9242C129.755 20.8618 129.766 20.7991 129.792 20.7421L134.997 7.14255C135.021 7.07083 135.068 7.00903 135.131 6.96656C135.194 6.92408 135.268 6.90327 135.344 6.90728H138.039C138.115 6.90302 138.19 6.92372 138.253 6.96621C138.316 7.0087 138.363 7.07064 138.387 7.14255L143.593 20.7421C143.619 20.7992 143.629 20.8619 143.624 20.9244C143.618 20.9868 143.597 21.0467 143.561 21.0984C143.527 21.1493 143.479 21.1901 143.424 21.2163C143.368 21.2425 143.306 21.2532 143.245 21.2474H140.837C140.76 21.2507 140.684 21.2282 140.621 21.1836C140.558 21.139 140.512 21.0747 140.49 21.0009L139.379 17.864H134.005V17.8651ZM146.386 10.7959C146.386 8.54407 148.28 6.59695 151.272 6.59695C152.884 6.56091 154.444 7.16461 155.612 8.27631C155.648 8.31003 155.676 8.35067 155.696 8.39574C155.715 8.44082 155.725 8.48939 155.725 8.53847C155.725 8.58755 155.715 8.63611 155.696 8.68119C155.676 8.72627 155.648 8.76691 155.612 8.80062L154.278 10.1618C154.246 10.1949 154.208 10.2212 154.165 10.2391C154.123 10.2571 154.078 10.2663 154.032 10.2663C153.986 10.2663 153.94 10.2571 153.898 10.2391C153.856 10.2212 153.818 10.1949 153.786 10.1618C153.157 9.57176 152.332 9.23745 151.47 9.2241C150.274 9.2241 149.389 9.93775 149.389 10.7612C149.389 13.4231 156.461 11.8871 156.461 17.0092C156.458 19.605 154.548 21.5689 151.173 21.5689C150.235 21.5785 149.306 21.3992 148.439 21.0416C147.572 20.684 146.786 20.1554 146.127 19.4874C146.092 19.4536 146.063 19.413 146.044 19.3679C146.025 19.3228 146.015 19.2743 146.015 19.2252C146.015 19.1761 146.025 19.1276 146.044 19.0825C146.063 19.0374 146.092 18.9968 146.127 18.963L147.418 17.6366C147.45 17.6019 147.489 17.5742 147.532 17.5553C147.576 17.5364 147.622 17.5266 147.67 17.5266C147.717 17.5266 147.764 17.5364 147.807 17.5553C147.85 17.5742 147.889 17.6019 147.921 17.6366C148.734 18.4431 149.828 18.9012 150.971 18.9137C152.467 18.9137 153.452 18.0937 153.452 17.0663C153.452 14.4033 146.383 15.9404 146.383 10.8172L146.386 10.7959ZM169.286 7.27475V12.6568H163.3V7.27475C163.3 7.22855 163.292 7.18269 163.275 7.13978C163.257 7.09687 163.232 7.05776 163.2 7.02468C163.168 6.9916 163.129 6.96519 163.087 6.94697C163.045 6.92875 162.999 6.91907 162.953 6.91848H160.682C160.636 6.91907 160.591 6.92875 160.548 6.94697C160.506 6.96519 160.467 6.9916 160.435 7.02468C160.403 7.05776 160.378 7.09687 160.361 7.13978C160.343 7.18269 160.335 7.22855 160.336 7.27475V20.8721C160.336 21.0692 160.492 21.2294 160.682 21.2294H162.953C163.143 21.2294 163.3 21.0692 163.3 20.8721V15.4049H169.281V20.8721C169.281 21.0692 169.438 21.2294 169.628 21.2294H171.899C172.09 21.2294 172.245 21.0692 172.245 20.8721V7.27475C172.246 7.22855 172.237 7.18269 172.22 7.13978C172.203 7.09687 172.178 7.05776 172.146 7.02468C172.114 6.9916 172.075 6.96519 172.033 6.94697C171.99 6.92875 171.945 6.91907 171.899 6.91848H169.628C169.536 6.92083 169.448 6.95955 169.384 7.02623C169.32 7.09292 169.285 7.18221 169.286 7.27475V7.27475ZM34.228 8.7334C32.6531 5.80937 29.5716 3.98885 26.2206 4.00005H0.866435C0.695212 4.00075 0.527978 4.05189 0.385571 4.14712C0.243165 4.24234 0.131882 4.37744 0.0655885 4.53556C0.000264063 4.69268 -0.0167493 4.86575 0.0167275 5.0326C0.0502043 5.19946 0.132647 5.35251 0.253497 5.47215L5.77665 10.9617C6.26432 11.4479 6.92871 11.7202 7.61994 11.7202H25.4936C26.7676 11.7067 27.8089 12.7173 27.8223 13.9754C27.8357 15.2335 26.8145 16.2642 25.5406 16.2765H13.218C13.0467 16.2766 12.8792 16.3272 12.7363 16.422C12.5935 16.5169 12.4817 16.6517 12.415 16.8098C12.349 16.9671 12.3315 17.1405 12.3648 17.3078C12.3981 17.4752 12.4806 17.6287 12.6017 17.7486L18.1283 23.2427C18.619 23.7286 19.2815 24.0008 19.9715 24H25.545C32.7963 24 38.2792 16.337 34.228 8.73004"/>
</svg>