<?xml version="1.0" encoding="utf-8"?>
<svg xmlns="http://www.w3.org/2000/svg" fill="none" viewBox="0 0 52 52" height="52" width="52">
<path stroke-linejoin="round" stroke="#101010" fill="#FFE6C9" d="M31.6088 6.65241C31.5146 6.555 31.3849 6.5 31.2494 6.5H14.6249C13.7906 6.5 12.994 6.84286 12.4094 7.44741C11.8253 8.05139 11.5 8.86711 11.5 9.71429V42.2857C11.5 43.1329 11.8253 43.9486 12.4094 44.5526C12.994 45.1571 13.7906 45.5 14.6249 45.5H37.3742C38.2084 45.5 39.005 45.1571 39.5897 44.5526C40.1738 43.9486 40.4991 43.1329 40.4991 42.2857V16.0476C40.4991 15.9179 40.4487 15.7933 40.3585 15.7L31.6088 6.65241Z"/>
<path stroke-linejoin="round" stroke="#101010" fill="#EE5A29" d="M39.9997 16.5476C40.2004 16.5476 40.3817 16.4276 40.46 16.2428C40.5384 16.058 40.4987 15.8443 40.3591 15.7L31.6094 6.65241C31.4678 6.50595 31.2514 6.46008 31.0625 6.53648C30.8736 6.61287 30.75 6.79624 30.75 7V12.0476C30.75 14.5329 32.7647 16.5476 35.25 16.5476H39.9997Z"/>
<path fill="#101010" d="M18.1211 25.0957H33.8706V26.9052H18.1211V25.0957ZM18.1211 28.7148H33.8706V30.5243H18.1211V28.7148ZM18.1211 32.3338H33.8706V34.1433H18.1211V32.3338ZM18.1211 35.9528H26.8708V37.7624H18.1211V35.9528Z"/>
</svg>