<?xml version="1.0" encoding="utf-8"?>
<svg xmlns="http://www.w3.org/2000/svg" fill="none" viewBox="0 0 212 28" height="28" width="212">
<path fill="#101010" d="M15.8741 3.68595C15.8741 1.53719 13.6885 1 11.9631 1V1.32231C12.9983 1.32231 13.8036 1.64463 13.8036 2.39669C13.8036 2.82645 13.4585 3.47107 12.4232 3.47107C11.618 3.47107 9.89255 3.04132 8.62722 2.61157C7.13184 2.07438 5.75148 1.64463 4.60119 1.64463C2.30059 1.64463 0.690178 3.2562 0.690178 5.08264C0.690178 6.69421 1.9555 7.2314 2.41562 7.44628L2.53065 7.2314C2.30059 7.01653 1.9555 6.80165 1.9555 6.15702C1.9555 5.72727 2.41562 4.97521 3.56592 4.97521C4.60119 4.97521 5.98154 5.40496 7.82202 5.94215C9.43243 6.3719 11.1579 6.69421 12.0781 6.80165V10.1322L10.3527 11.5289V11.6364L12.0781 13.0331V17.6529C11.1579 18.1901 10.1226 18.2975 9.20237 18.2975C7.47693 18.2975 5.98154 17.8678 4.71622 16.5785L9.43243 14.4298V7.01653L3.68095 9.38016C4.14107 7.98347 5.40639 7.01653 6.67172 6.3719L6.55669 6.04959C3.1058 6.90909 0 9.91736 0 13.5702C0 17.8678 3.79598 21.0909 8.05208 21.0909C12.6533 21.0909 15.644 17.6529 15.644 14.1074H15.414C14.7238 15.5041 13.6885 16.7934 12.4232 17.438V13.0331L14.2637 11.6364V11.5289L12.4232 10.1322V6.80165C14.1486 6.80165 15.8741 5.72727 15.8741 3.68595ZM5.86651 15.5041L4.48616 16.1488C3.68095 15.1818 3.22083 13.8926 3.22083 12.0661C3.22083 11.314 3.22083 10.4545 3.45089 9.80992L5.86651 8.84297V15.5041V15.5041ZM18.0597 17.9752L16.5643 19.0496L16.7943 19.2645L17.4845 18.7273L20.0152 20.876L23.466 18.7273L23.351 18.5124L22.4308 19.0496L21.2805 17.9752V10.6694L22.2007 10.0248L24.1562 11.5289V18.0826C24.1562 22.1653 23.236 22.8099 21.2805 23.4545V23.7769C24.5013 23.8843 27.4921 22.9174 27.4921 17.6529V10.562L28.5274 9.80992L28.2973 9.59504L27.3771 10.2397L24.5013 7.98347L21.2805 10.2397V1.42975H21.0504L17.0244 4.00826V4.22314C17.4845 4.43802 18.1747 4.65289 18.1747 5.83471L18.0597 17.9752V17.9752ZM39.1101 16.7934L36.2343 18.8347L33.3586 16.686V15.3967L38.765 11.9587V11.8512L36.0043 7.98347L30.0227 10.9917V18.0826L28.8724 18.9421L29.1025 19.157L30.1378 18.405L34.0488 21.0909L39.2251 17.2231L39.1101 16.7934V16.7934ZM33.3586 14.9669V9.70248L33.5887 9.59504L36.1193 13.3554L33.3586 14.9669ZM61.0807 2.71901C61.0807 2.39669 60.9657 2.07438 60.8507 1.75207H60.6206C60.2755 2.61157 59.8154 3.04132 58.6651 3.04132C57.6299 3.04132 56.9397 2.50413 56.4796 2.07438L53.1437 5.61983L53.3738 5.83471L54.5241 4.86777C55.2142 5.40496 55.7894 5.83471 57.3998 5.94215V14.8595L50.613 4.00826C50.0379 3.14876 49.2327 1.96694 47.6223 1.96694C45.7818 1.96694 44.1714 3.47107 44.4014 5.83471H44.7465C44.8616 5.19008 45.2067 4.43802 46.0119 4.43802C46.587 4.43802 47.1622 4.97521 47.5072 5.5124V9.05785C45.4367 9.05785 44.0564 9.91736 44.0564 11.5289C44.0564 12.3884 44.5165 13.6777 45.8968 14V13.7851C45.6668 13.5702 45.5517 13.3554 45.5517 13.0331C45.5517 12.4959 46.0119 12.0661 46.8171 12.0661H47.3922V16.5785C44.9766 16.5785 43.0211 17.8678 43.0211 20.0165C43.0211 22.0579 44.8616 23.0248 46.9321 22.9174V22.7025C45.6668 22.595 45.0916 22.0579 45.0916 21.3058C45.0916 20.3388 45.7818 19.9091 46.702 19.9091C47.6223 19.9091 48.4275 20.4463 49.0026 21.0909L52.3385 17.6529L52.1084 17.438L51.3032 18.2975C50.0379 17.2231 49.3477 16.9008 47.8523 16.686V5.94215L57.0547 20.9835H57.7449V5.94215C59.4703 5.83471 61.0807 4.54545 61.0807 2.71901V2.71901ZM69.4779 16.7934L66.6022 18.8347L63.7264 16.686V15.3967L69.1328 11.9587V11.8512L66.3721 7.98347L60.3906 10.9917V18.0826L59.2403 18.9421L59.4703 19.157L60.5056 18.405L64.4166 21.0909L69.5929 17.2231L69.4779 16.7934V16.7934ZM63.7264 14.9669V9.70248L63.9565 9.59504L66.4871 13.3554L63.7264 14.9669V14.9669ZM88.2277 9.16529L87.4225 9.70248L85.237 7.98347L82.7063 10.1322L83.7416 11.0992V19.157L80.9809 17.5455V10.8843L81.9011 10.3471L79.2554 7.98347L76.7248 10.1322L77.76 11.0992V18.8347L77.415 19.0496L74.9993 17.438V10.9917C74.9993 9.4876 74.1941 9.05785 73.2739 8.52066C72.4687 7.98347 72.0086 7.66116 72.0086 6.90909C72.0086 6.26446 72.6987 5.94215 73.0438 5.72727V5.5124C72.1236 5.5124 69.708 6.3719 69.708 8.41322C69.708 9.4876 70.2831 9.91736 70.8583 10.4545C71.4334 10.9917 72.0086 11.4215 72.0086 12.3884V18.6198L70.7432 19.4793L70.9733 19.6942L72.1236 18.8347L74.7693 20.9835L77.645 19.157L80.8658 20.9835L86.9624 17.6529V10.4545L88.4578 9.38016L88.2277 9.16529V9.16529ZM109.623 3.2562L108.473 4.22314L105.942 2.07438L102.146 4.65289V2.28926H101.801L101.916 19.6942C101.571 19.6942 100.536 19.4793 99.7307 19.2645L99.5006 4.76033C99.5006 3.68595 98.6954 2.18182 96.6249 2.18182C94.5544 2.18182 93.174 3.68595 93.174 5.19008H93.5191C93.6341 4.54545 93.9792 4.00826 94.6694 4.00826C95.3596 4.00826 95.9347 4.43802 95.9347 5.83471V10.0248C93.8642 10.1322 92.5989 11.2066 92.5989 12.6033C92.5989 13.4628 93.059 14.7521 94.4393 14.7521V14.5372C93.9792 14.3223 93.8642 14 93.8642 13.7851C93.8642 13.1405 94.4393 12.9256 95.3596 12.9256H95.8197V19.5868C94.0943 20.124 93.4041 21.3058 93.4041 22.595C93.4041 24.4215 94.8995 25.7107 97.2 25.7107C98.8105 25.7107 100.191 25.4959 101.571 25.1736C102.721 24.9587 104.217 24.6364 104.907 24.6364C105.827 24.6364 106.172 25.0661 106.172 25.6033C106.172 26.3554 105.827 26.6777 105.367 26.7851V27C107.208 26.6777 108.358 25.6033 108.358 23.9917C108.358 22.3802 106.632 21.4132 104.792 21.4132C103.872 21.4132 101.916 21.7355 100.536 21.9504C98.9255 22.2727 97.3151 22.4876 96.855 22.4876C96.0498 22.4876 95.1295 22.1653 95.1295 21.0909C95.1295 20.2314 95.9347 19.4793 97.8902 19.4793C98.9255 19.4793 100.191 19.5868 101.456 19.9091C102.836 20.2314 104.102 20.5537 105.252 20.5537C106.978 20.5537 108.473 20.0165 108.473 17.7603V4.54545L109.853 3.47107L109.623 3.2562V3.2562ZM104.907 9.80992C104.562 10.1322 104.102 10.4545 103.527 10.4545C102.952 10.4545 102.376 10.1322 102.146 9.80992V5.08264L103.297 4.33058L104.907 5.72727V9.80992ZM104.907 13.0331C104.677 12.8182 104.102 12.4959 103.527 12.4959C102.952 12.4959 102.376 12.8182 102.146 13.0331V10.2397C102.376 10.4545 102.952 10.7769 103.527 10.7769C104.102 10.7769 104.677 10.4545 104.907 10.2397V13.0331ZM104.907 18.0826C104.907 18.9421 104.332 19.8017 103.067 19.8017H102.146V13.4628C102.376 13.2479 102.952 12.9256 103.527 12.9256C104.102 12.9256 104.562 13.2479 104.907 13.4628V18.0826V18.0826ZM120.666 10.4545L116.985 7.98347L111.349 10.9917V17.9752L110.198 18.8347L110.313 19.0496L111.234 18.405L114.915 20.9835L120.666 17.7603V10.4545V10.4545ZM114.454 17.2231V9.4876L117.33 11.4215V19.0496L114.454 17.2231V17.2231ZM131.594 8.19835H131.364C131.019 8.41322 130.674 8.6281 130.329 8.6281C129.868 8.6281 129.293 8.41322 129.063 8.09091H128.833L126.878 10.1322L124.922 8.09091L121.471 10.2397L121.586 10.4545L122.507 9.91736L123.657 11.0992V17.8678L122.161 18.9421L122.392 19.157L123.082 18.6198L125.842 20.7686L129.408 18.5124L129.293 18.2975L128.258 18.8347L126.878 17.7603V10.2397C127.453 10.7769 128.143 11.314 128.948 11.314C130.559 11.4215 131.479 9.91736 131.594 8.19835V8.19835ZM145.397 18.5124L141.486 20.9835L136.195 13.4628L139.991 7.98347H140.221C140.681 8.41322 141.371 8.84297 142.177 8.84297C142.982 8.84297 143.557 8.41322 143.902 7.98347H144.132C144.017 10.1322 142.407 11.4215 141.256 11.4215C140.106 11.4215 139.531 10.8843 138.841 10.562L138.496 11.0992L144.247 19.0496L145.397 18.405V18.5124V18.5124ZM132.744 17.9752L131.249 19.0496L131.479 19.2645L132.169 18.7273L134.7 20.876L138.151 18.7273L137.921 18.5124L137 19.0496L135.85 17.9752V1.42975H135.735L131.594 4.00826V4.22314C132.054 4.43802 132.744 4.54545 132.744 5.83471V17.9752V17.9752ZM164.492 3.68595C164.492 1.53719 162.307 1 160.581 1V1.32231C161.617 1.32231 162.422 1.64463 162.422 2.39669C162.422 2.82645 162.077 3.47107 161.042 3.47107C160.236 3.47107 158.511 3.04132 157.246 2.61157C155.75 2.18182 154.37 1.75207 153.219 1.75207C150.919 1.75207 149.308 3.36364 149.308 5.19008C149.308 6.80165 150.574 7.33884 151.034 7.55372L151.149 7.33884C150.804 7.12397 150.459 6.90909 150.459 6.26446C150.459 5.83471 150.919 5.08264 152.069 5.08264C153.104 5.08264 154.485 5.5124 156.325 6.04959C157.936 6.47934 159.661 6.80165 160.581 6.90909V10.2397L158.856 11.6364V11.7438L160.581 13.1405V17.7603C159.661 18.2975 158.626 18.405 157.706 18.405C155.98 18.405 154.485 17.9752 153.219 16.686L157.936 14.5372V7.01653L152.184 9.38016C152.759 7.98347 154.025 7.01653 155.175 6.26446L155.06 6.04959C151.609 6.90909 148.503 9.80992 148.503 13.4628C148.503 17.7603 152.299 20.9835 156.555 20.9835C161.157 20.9835 164.147 17.5455 164.147 14H163.917C163.227 15.3967 162.192 16.686 160.926 17.3306V12.9256L162.767 11.5289V11.4215L161.042 10.0248V6.80165C162.767 6.80165 164.492 5.72727 164.492 3.68595V3.68595ZM154.485 15.5041L153.104 16.1488C152.299 15.1818 151.839 13.8926 151.839 12.0661C151.839 11.314 151.954 10.4545 152.184 9.80992L154.6 8.84297L154.485 15.5041V15.5041ZM168.518 2.61157H168.403L166.103 4.43802V4.54545L168.058 6.58678H168.288L170.589 4.76033V4.65289L168.518 2.61157V2.61157ZM171.969 18.5124L171.049 19.0496L169.899 17.9752V10.562L171.049 9.80992L170.819 9.59504L170.014 10.2397L167.943 7.98347L164.607 10.1322L164.837 10.4545L165.643 9.91736L166.678 11.0992V18.0826L165.183 19.157L165.298 19.3719L166.103 18.8347L168.633 20.9835L172.084 18.8347L171.969 18.5124V18.5124ZM191.179 18.405L190.374 18.9421L189.109 17.8678V10.562L190.259 9.70248L190.029 9.4876L189.109 10.2397L186.463 7.98347L183.012 10.2397L180.366 7.98347L177.146 10.2397L175.075 7.98347L171.739 10.1322L171.854 10.4545L172.66 9.91736L173.81 11.0992V18.0826L172.89 18.9421L175.535 20.9835L178.066 18.8347L177.031 17.8678V10.562L178.066 9.91736L179.791 11.4215V17.8678L178.871 18.7273L181.517 20.7686L184.047 18.6198L183.012 17.6529V10.562L183.932 10.0248L185.773 11.5289V17.9752L184.968 18.7273L187.613 20.9835L191.179 18.7273V18.405V18.405ZM201.187 16.7934L198.311 18.8347L195.435 16.686V15.3967L200.842 11.9587V11.8512L198.081 7.98347L192.1 10.9917V18.2975L196.126 20.9835L201.302 17.1157L201.187 16.7934V16.7934ZM195.435 14.9669V9.70248L195.665 9.59504L198.196 13.3554L195.435 14.9669V14.9669ZM211.655 14L209.469 12.3884C210.964 11.2066 211.54 9.59504 211.54 8.52066V7.87603H211.309C211.079 8.41322 210.619 8.95041 209.699 8.95041C208.779 8.95041 208.204 8.52066 207.629 7.87603L202.452 10.562V14.4298L204.408 15.8264C202.452 17.438 202.107 18.5124 202.107 19.3719C202.107 20.4463 202.682 21.1983 203.602 21.5207L203.718 21.3058C203.487 21.0909 203.257 20.9835 203.257 20.4463C203.257 20.124 203.717 19.5868 204.638 19.5868C205.788 19.5868 206.478 20.3388 206.823 20.6612L211.77 17.8678V14H211.655V14ZM210.389 10.7769C209.584 12.0661 207.859 13.3554 206.823 14L205.558 13.0331V9.27273C206.018 10.3471 207.283 11.2066 208.549 11.2066C209.354 11.2066 209.814 11.0992 210.389 10.7769V10.7769ZM208.434 19.3719C207.859 18.1901 206.478 17.3306 205.098 17.3306C204.753 17.3306 203.833 17.3306 202.912 17.8678C203.487 17.0083 204.983 15.5041 206.938 14.4298L208.319 15.5041L208.434 19.3719V19.3719Z"/>
</svg>