<?xml version="1.0" encoding="utf-8"?>
<svg xmlns="http://www.w3.org/2000/svg" fill="none" viewBox="0 0 52 52" height="52" width="52">
<g clip-path="url(#clip0_5686_6227)">
<path stroke-linejoin="round" stroke="#101010" fill="#EE5A29" d="M21.4994 20.5C21.1694 20.5 20.8494 20.57 20.5494 20.7C20.2494 20.83 19.9794 21.02 19.7494 21.25L16.0594 24.94C15.9194 25.08 15.8094 25.24 15.7294 25.42C15.6494 25.6 15.6094 25.8 15.6094 26C15.6094 26.2 15.6494 26.39 15.7294 26.58C15.8094 26.76 15.9194 26.92 16.0594 27.06L19.7494 30.75C20.2394 31.24 20.8694 31.5 21.5094 31.5H42.7094C43.1194 31.5 43.5094 31.36 43.7894 31.08C44.0694 30.8 44.2094 30.41 44.2094 30V22C44.2094 21.59 44.0694 21.2 43.7894 20.92C43.5094 20.64 43.1194 20.5 42.7094 20.5H21.5094H21.4994Z"/>
<path fill="#101010" d="M9.81055 11.2207H11.9205V40.7807H9.81055V11.2207Z"/>
<path fill="#101010" d="M13.8008 12C13.8008 12.39 13.7208 12.78 13.5708 13.15C13.4208 13.51 13.2008 13.84 12.9208 14.12C12.6408 14.4 12.3108 14.62 11.9508 14.77C11.5908 14.92 11.2008 15 10.8008 15C10.4108 15 10.0208 14.92 9.65078 14.77C9.29078 14.62 8.96078 14.4 8.68078 14.12C8.40078 13.84 8.18078 13.51 8.03078 13.15C7.88078 12.79 7.80078 12.4 7.80078 12C7.80078 11.2 8.12078 10.44 8.68078 9.88C9.24078 9.32 10.0108 9 10.8008 9C11.6008 9 12.3608 9.32 12.9208 9.88C13.4808 10.44 13.8008 11.21 13.8008 12ZM13.8008 26C13.8008 26.39 13.7208 26.78 13.5708 27.15C13.4208 27.51 13.2008 27.84 12.9208 28.12C12.6408 28.4 12.3108 28.62 11.9508 28.77C11.5908 28.92 11.2008 29 10.8008 29C10.4108 29 10.0208 28.92 9.65078 28.77C9.29078 28.62 8.96078 28.4 8.68078 28.12C8.40078 27.84 8.18078 27.51 8.03078 27.15C7.88078 26.79 7.80078 26.4 7.80078 26C7.80078 25.2 8.12078 24.44 8.68078 23.88C9.24078 23.32 10.0108 23 10.8008 23C11.6008 23 12.3608 23.32 12.9208 23.88C13.4808 24.44 13.8008 25.21 13.8008 26ZM13.8008 40C13.8008 40.39 13.7208 40.78 13.5708 41.15C13.4208 41.51 13.2008 41.84 12.9208 42.12C12.6408 42.4 12.3108 42.62 11.9508 42.77C11.5908 42.92 11.2008 43 10.8008 43C10.4108 43 10.0208 42.92 9.65078 42.77C9.29078 42.62 8.96078 42.4 8.68078 42.12C8.40078 41.84 8.18078 41.51 8.03078 41.15C7.88078 40.79 7.80078 40.4 7.80078 40C7.80078 39.2 8.12078 38.44 8.68078 37.88C9.24078 37.32 10.0108 37 10.8008 37C11.6008 37 12.3608 37.32 12.9208 37.88C13.4808 38.44 13.8008 39.21 13.8008 40Z"/>
<path stroke-linejoin="round" stroke="#101010" fill="#FFE6C9" d="M21.4994 34.5C21.1694 34.5 20.8494 34.57 20.5494 34.7C20.2494 34.83 19.9794 35.02 19.7494 35.25L16.0594 38.94C15.9194 39.08 15.8094 39.24 15.7294 39.42C15.6494 39.6 15.6094 39.8 15.6094 40C15.6094 40.2 15.6494 40.39 15.7294 40.58C15.8094 40.76 15.9194 40.92 16.0594 41.06L19.7494 44.75C20.2394 45.24 20.8694 45.5 21.5094 45.5H34.7094C35.1194 45.5 35.5094 45.36 35.7894 45.08C36.0694 44.8 36.2094 44.41 36.2094 44V36C36.2094 35.59 36.0694 35.2 35.7894 34.92C35.5094 34.64 35.1194 34.5 34.7094 34.5H21.5094H21.4994Z"/>
<path stroke-linejoin="round" stroke="#101010" fill="#F8AD40" d="M21.4994 6.5C21.1694 6.5 20.8494 6.57 20.5494 6.7C20.2494 6.83 19.9794 7.02 19.7494 7.25L16.0594 10.94C15.9194 11.08 15.8094 11.24 15.7294 11.42C15.6494 11.6 15.6094 11.8 15.6094 12C15.6094 12.2 15.6494 12.39 15.7294 12.58C15.8094 12.76 15.9194 12.92 16.0594 13.06L19.7494 16.75C20.2394 17.24 20.8694 17.5 21.5094 17.5H35.7094C36.1194 17.5 36.5094 17.36 36.7894 17.08C37.0694 16.8 37.2094 16.41 37.2094 16V8C37.2094 7.59 37.0694 7.2 36.7894 6.92C36.5094 6.64 36.1194 6.5 35.7094 6.5H21.5094H21.4994Z"/>
</g>
<defs>
<clipPath id="clip0_5686_6227">
<rect fill="white" height="52" width="52"/>
</clipPath>
</defs>
</svg>