<?xml version="1.0" encoding="utf-8"?>
<svg xmlns="http://www.w3.org/2000/svg" fill="none" viewBox="0 0 73 28" height="28" width="73">
<g clip-path="url(#clip0_1013_1740)">
<path fill="#101010" d="M0 2.68823V21.9027L2.63594 21.9122V12.7625H8.97235V10.3416H2.62581V5.09957H10.8885V2.68823H0ZM15.6129 6.59594C16.07 6.59594 16.5084 6.42523 16.8316 6.12137C17.1548 5.81752 17.3364 5.40539 17.3364 4.97567C17.3364 4.54595 17.1548 4.13383 16.8316 3.82997C16.5084 3.52611 16.07 3.3554 15.6129 3.3554C15.1558 3.3554 14.7174 3.52611 14.3942 3.82997C14.071 4.13383 13.8894 4.54595 13.8894 4.97567C13.8894 5.40539 14.071 5.81752 14.3942 6.12137C14.7174 6.42523 15.1558 6.59594 15.6129 6.59594ZM14.2848 9.00728V21.9122H16.9207V9.00728H14.2848Z"/>
<path fill="#101010" d="M26.6636 8.63573C23.176 8.63573 20.7429 11.4093 20.7429 14.707C20.7429 18.0047 23.176 20.7782 26.6636 20.7782C28.2654 20.7782 29.5834 20.2064 30.5465 19.2533V20.9688C30.5532 21.4814 30.4518 21.9902 30.2481 22.4657C30.0443 22.9413 29.7424 23.3741 29.3596 23.7393C28.9769 24.1044 28.5209 24.3946 28.0181 24.5931C27.5154 24.7916 26.9757 24.8944 26.4304 24.8956C25.5889 24.8956 24.7576 24.5906 24.0986 24.1522L22.7806 26.2967C23.7998 26.916 24.9778 27.2652 26.1904 27.3075C27.4031 27.3498 28.6054 27.0837 29.6706 26.5371C30.7357 25.9906 31.6242 25.1839 32.2423 24.2022C32.8604 23.2205 33.1852 22.1001 33.1825 20.9593V9.01697H30.5465V10.1702C29.5834 9.21713 28.2654 8.64527 26.6636 8.64527V8.63573ZM23.3687 14.707C23.3687 12.6578 25.0313 11.0471 26.9576 11.0471C28.8839 11.0471 30.5364 12.6673 30.5364 14.707C30.5364 16.7561 28.8737 18.3573 26.9576 18.3573C25.0313 18.3573 23.3687 16.7561 23.3687 14.707Z" clip-rule="evenodd" fill-rule="evenodd"/>
<path fill="#101010" d="M42.6517 11.0468C41.8978 11.0593 41.1795 11.3503 40.652 11.8569C40.1246 12.3634 39.8305 13.0448 39.8332 13.7536V21.9121H37.1973V9.00716H39.8332V10.189C40.2276 9.69763 40.7399 9.30079 41.3283 9.03081C41.9168 8.76084 42.5647 8.62538 43.2194 8.63545C45.0646 8.63545 46.4839 9.49324 47.295 10.8085C47.7475 10.1492 48.3668 9.60554 49.0975 9.22631C49.8282 8.84709 50.6475 8.64408 51.4821 8.63545C54.4729 8.63545 56.3484 10.9038 56.3484 13.7155V21.9121H53.7328V13.7441C53.7356 13.0352 53.4414 12.3539 52.914 11.8473C52.3866 11.3408 51.6682 11.0498 50.9143 11.0373C50.1605 11.0498 49.4421 11.3408 48.9147 11.8473C48.3873 12.3539 48.0931 13.0352 48.0959 13.7441V21.9026H45.46V13.7441C45.4628 13.0369 45.1701 12.3569 44.6448 11.8506C44.1195 11.3443 43.4038 11.0523 42.6517 11.0373V11.0468Z"/>
<path fill="#101010" d="M70.3697 10.475C69.7711 9.8882 69.0515 9.42242 68.2548 9.10613C67.4582 8.78984 66.6013 8.62969 65.7365 8.63548C61.8232 8.63548 59.0453 11.7426 59.0453 15.4597C59.0453 19.1768 61.8232 22.2839 65.7365 22.2839C66.601 22.288 67.4574 22.1271 68.2538 21.8109C69.0502 21.4947 69.77 21.0298 70.3697 20.4444V21.9122H72.9955V9.00719H70.3596V10.475H70.3697ZM61.6711 15.4597C61.6711 13.0007 63.6785 11.0468 66.0204 11.0468C68.3522 11.0468 70.3697 13.0007 70.3697 15.4597C70.3697 17.9187 68.3623 19.863 66.0204 19.863C63.6886 19.863 61.6711 17.9187 61.6711 15.4597Z" clip-rule="evenodd" fill-rule="evenodd"/>
</g>
<defs>
<clipPath id="clip0_1013_1740">
<rect fill="white" height="28" width="73"/>
</clipPath>
</defs>
</svg>